<svg width="21" height="18" viewBox="0 0 21 18" fill="none" xmlns="http://www.w3.org/2000/svg">
<g id="Group">
<g id="SVGRepo_iconCarrier">
<g id="Vector">
<path d="M2.44531 1L18.4453 17L2.44531 1Z" fill="#454380"/>
<path d="M2.44531 1L18.4453 17" stroke="#454380" stroke-width="2" stroke-linecap="round"/>
</g>
<path id="Vector_2" fill-rule="evenodd" clip-rule="evenodd" d="M4.66839 2.63732C2.63743 3.89322 1.046 5.79137 0.17706 8.0474C-0.05902 8.6604 -0.05902 9.3396 0.17706 9.9526C1.7642 14.0733 5.76172 17 10.4453 17C12.8673 17 15.1059 16.2173 16.9226 14.8915L15.4873 13.4562C14.0486 14.4309 12.3131 15 10.4453 15C6.61615 15 3.34315 12.6083 2.04341 9.2337C1.98553 9.0835 1.98553 8.9165 2.04341 8.7663C2.81262 6.76914 4.27297 5.11625 6.13071 4.09964L4.66839 2.63732ZM7.92486 5.89379C7.02211 6.6272 6.44528 7.7462 6.44528 9C6.44528 11.2091 8.23614 13 10.4453 13C11.699 13 12.8181 12.4232 13.5515 11.5204L12.1219 10.0908C11.765 10.6382 11.1474 11 10.4453 11C9.34071 11 8.44528 10.1046 8.44528 9C8.44528 8.2979 8.80711 7.6802 9.35441 7.3234L7.92486 5.89379ZM14.408 9.5485L9.89681 5.03729C10.0761 5.0127 10.2592 5 10.4453 5C12.6544 5 14.4453 6.79086 14.4453 9C14.4453 9.1861 14.4326 9.3692 14.408 9.5485ZM17.0131 12.1536C17.7991 11.3151 18.4265 10.3259 18.8471 9.2337C18.905 9.0835 18.905 8.9165 18.8471 8.7663C17.5474 5.39172 14.2744 3 10.4453 3C9.65351 3 8.88551 3.10226 8.15382 3.29433L6.56386 1.70437C7.77072 1.24913 9.07881 1 10.4453 1C15.1288 1 19.1263 3.92668 20.7135 8.0474C20.9496 8.6604 20.9496 9.3396 20.7135 9.9526C20.1917 11.3074 19.4093 12.5331 18.4277 13.5682L17.0131 12.1536Z" fill="#454380"/>
</g>
</g>
</svg>
